<svg width="2137" height="345" viewBox="0 0 2137 345" fill="none" xmlns="http://www.w3.org/2000/svg">
<rect x="1529" y="8" width="608" height="324" rx="10" fill="#181818"/>
<path d="M1616.38 271.112V248.072C1616.38 243.805 1618.43 241.672 1622.53 241.672H1644.54C1648.81 241.672 1650.94 243.805 1650.94 248.072V271.112C1650.94 275.037 1648.81 277 1644.54 277H1622.53C1620.65 277 1619.11 276.488 1617.92 275.464C1616.9 274.269 1616.38 272.819 1616.38 271.112ZM1672.88 171.272V141.064H1782.71V171.272L1724.34 246.536H1782.71V276.744H1676.72V246.792L1737.65 171.272H1672.88ZM1796.18 188.168V176.392C1796.18 151.987 1807.96 139.784 1831.51 139.784C1871.96 139.784 1896.19 142.088 1904.21 146.696V169.224H1842.52C1840.3 169.224 1838.42 169.395 1836.88 169.736C1835.52 170.077 1834.49 170.675 1833.81 171.528C1833.13 172.381 1832.62 173.32 1832.28 174.344C1832.11 175.368 1832.02 176.819 1832.02 178.696V184.84C1832.02 188.765 1832.87 191.24 1834.58 192.264C1836.29 193.117 1838.93 193.544 1842.52 193.544H1874.77C1881.09 193.544 1886.55 194.483 1891.16 196.36C1895.93 198.067 1899.69 200.541 1902.42 203.784C1905.32 207.027 1907.45 210.781 1908.82 215.048C1910.19 219.144 1910.87 223.667 1910.87 228.616V242.696C1910.87 263.176 1902.25 274.867 1885.01 277.768C1882.62 278.109 1880.15 278.28 1877.59 278.28C1834.58 278.28 1809.32 275.805 1801.81 270.856V248.584H1866.07C1872.04 248.584 1875.03 245.683 1875.03 239.88V233.48C1875.03 231.432 1874.77 229.811 1874.26 228.616C1873.92 227.421 1873.07 226.483 1871.7 225.8C1870.33 225.117 1868.46 224.776 1866.07 224.776H1834.32C1821.87 224.776 1812.39 221.875 1805.91 216.072C1799.42 210.269 1796.18 200.968 1796.18 188.168ZM1930.02 277V76.552H1965.6V155.656C1968.16 153.779 1969.79 152.584 1970.47 152.072C1971.32 151.56 1972.94 150.451 1975.33 148.744C1977.89 147.037 1979.77 145.928 1980.96 145.416C1982.16 144.904 1984.04 144.136 1986.6 143.112C1989.16 141.917 1991.37 141.149 1993.25 140.808C1995.3 140.296 1997.69 139.869 2000.42 139.528C2003.15 139.016 2005.97 138.76 2008.87 138.76C2036 138.76 2049.57 154.632 2049.57 186.376V277H2013.73V185.864C2013.73 179.379 2012.37 174.685 2009.64 171.784C2007.08 168.883 2003.41 167.432 1998.63 167.432C1993.85 167.432 1989.58 167.944 1985.83 168.968C1982.24 169.821 1978.92 171.101 1975.84 172.808C1972.94 174.344 1969.61 176.477 1965.86 179.208V277H1930.02Z" fill="white"/>
<path d="M808.36 344.12V139.064H821.928L826.792 154.168C831.059 151.096 838.568 147.597 849.32 143.672C860.072 139.576 869.373 137.528 877.224 137.528C886.099 137.528 893.608 139.576 899.752 143.672C905.896 147.768 910.504 153.4 913.576 160.568C916.648 167.565 918.781 174.819 919.976 182.328C921.341 189.667 922.024 197.688 922.024 206.392C922.024 216.291 921.427 224.995 920.232 232.504C919.208 239.843 917.16 247.181 914.088 254.52C911.187 261.688 906.579 267.235 900.264 271.16C894.12 275.085 886.44 277.048 877.224 277.048C870.909 277.048 862.803 276.109 852.904 274.232C843.176 272.355 834.472 269.88 826.792 266.808V344.12H808.36ZM826.792 251.448C843.859 255.885 860.669 258.104 877.224 258.104C886.099 258.104 892.584 254.435 896.68 247.096C900.947 239.757 903.08 226.189 903.08 206.392C903.08 173.112 894.461 156.472 877.224 156.472C862.888 156.472 846.077 160.397 826.792 168.248V251.448ZM950.11 226.616V74.552H969.054V226.616C969.054 237.027 970.249 244.28 972.638 248.376C975.027 252.301 978.697 254.861 983.646 256.056C997.641 259.64 1005.24 261.432 1006.43 261.432V275H983.902C961.374 275 950.11 258.872 950.11 226.616ZM1024.3 233.784V139.064H1043.24V233.784C1043.24 241.805 1045.38 247.949 1049.64 252.216C1053.91 256.312 1059.46 258.36 1066.28 258.36C1072.77 258.36 1078.91 257.677 1084.72 256.312C1090.52 254.947 1095.13 253.581 1098.54 252.216C1102.12 250.68 1108.1 247.864 1116.46 243.768V139.064H1135.4V275H1122.09L1116.46 259.128C1115.95 259.299 1114.07 260.408 1110.83 262.456C1107.59 264.333 1105.54 265.443 1104.68 265.784C1104 266.125 1102.21 267.149 1099.31 268.856C1096.41 270.392 1094.36 271.331 1093.16 271.672C1091.97 272.013 1090.01 272.696 1087.28 273.72C1084.55 274.744 1082.24 275.427 1080.36 275.768C1078.66 276.109 1076.52 276.451 1073.96 276.792C1071.4 277.133 1068.84 277.304 1066.28 277.304C1053.31 277.304 1043.07 273.037 1035.56 264.504C1028.05 255.971 1024.3 245.731 1024.3 233.784ZM1163.04 245.56C1163.04 240.781 1164.32 236.344 1166.88 232.248C1169.44 227.981 1173.19 225.336 1178.14 224.312C1168.24 217.997 1163.29 205.539 1163.29 186.936C1163.29 171.064 1167.13 159.032 1174.81 150.84C1182.66 142.648 1193.59 138.552 1207.58 138.552H1287.45V152.888L1266.72 157.496C1266.89 157.837 1267.49 158.947 1268.51 160.824C1269.53 162.531 1270.3 163.981 1270.81 165.176C1271.33 166.2 1271.92 167.821 1272.61 170.04C1273.29 172.088 1273.8 174.563 1274.14 177.464C1274.48 180.195 1274.65 183.352 1274.65 186.936C1274.65 191.715 1274.06 196.579 1272.86 201.528C1271.84 206.477 1269.96 211.853 1267.23 217.656C1264.5 223.288 1260.15 227.896 1254.17 231.48C1248.2 235.064 1240.95 236.856 1232.41 236.856H1192.48C1185.48 236.856 1181.98 239.416 1181.98 244.536C1181.98 250.339 1185.48 253.24 1192.48 253.24H1247.01C1257.42 253.24 1265.52 256.483 1271.33 262.968C1277.13 269.283 1280.03 277.816 1280.03 288.568V304.696C1280.03 309.304 1279.52 313.571 1278.49 317.496C1277.64 321.421 1275.93 325.517 1273.37 329.784C1270.98 334.221 1267.06 337.72 1261.6 340.28C1256.14 342.84 1249.48 344.12 1241.63 344.12H1203.23C1190.77 344.12 1180.79 340.792 1173.28 334.136C1165.94 327.48 1162.27 317.667 1162.27 304.696V282.936L1172.51 266.296C1166.2 261.859 1163.04 254.947 1163.04 245.56ZM1181.21 304.696C1181.21 318.349 1188.55 325.176 1203.23 325.176H1241.63C1254.6 325.176 1261.09 318.349 1261.09 304.696V289.848C1261.09 283.363 1259.89 278.755 1257.5 276.024C1255.28 273.464 1250.68 272.184 1243.68 272.184H1192.73C1190.34 272.184 1188.21 272.013 1186.33 271.672C1184.46 271.331 1183.18 270.989 1182.49 270.648L1181.21 270.136V304.696ZM1182.24 186.936C1182.24 190.52 1182.58 193.933 1183.26 197.176C1183.94 200.419 1185.05 203.747 1186.59 207.16C1188.13 210.403 1190.52 213.048 1193.76 215.096C1197.17 216.973 1201.18 217.912 1205.79 217.912H1230.88C1235.49 217.912 1239.5 216.973 1242.91 215.096C1246.32 213.219 1248.88 210.744 1250.59 207.672C1252.47 204.6 1253.75 201.528 1254.43 198.456C1255.28 195.213 1255.71 191.971 1255.71 188.728C1255.71 188.045 1255.71 187.448 1255.71 186.936C1255.2 177.037 1253.24 169.699 1249.82 164.92C1246.41 159.971 1240.01 157.496 1230.62 157.496H1207.58C1190.69 157.496 1182.24 167.309 1182.24 186.936ZM1305.3 117.048V103.224C1305.3 98.9573 1307.35 96.824 1311.44 96.824H1324.24C1328.17 96.824 1330.13 98.9573 1330.13 103.224V117.048C1330.13 120.973 1328.17 122.936 1324.24 122.936H1311.44C1307.35 122.936 1305.3 120.973 1305.3 117.048ZM1307.86 275V139.064H1326.8V275H1307.86ZM1358.36 275V139.064H1371.67L1377.3 154.936C1377.82 154.765 1379.69 153.741 1382.94 151.864C1386.18 149.816 1388.14 148.621 1388.82 148.28C1389.68 147.939 1391.55 147 1394.46 145.464C1397.36 143.757 1399.41 142.733 1400.6 142.392C1401.79 142.051 1403.76 141.368 1406.49 140.344C1409.22 139.32 1411.44 138.637 1413.14 138.296C1415.02 137.955 1417.24 137.613 1419.8 137.272C1422.36 136.931 1424.92 136.76 1427.48 136.76C1440.45 136.76 1450.69 141.027 1458.2 149.56C1465.71 158.093 1469.46 168.333 1469.46 180.28V275H1450.52V180.28C1450.52 172.259 1448.39 166.2 1444.12 162.104C1439.85 157.837 1434.31 155.704 1427.48 155.704C1420.99 155.704 1414.85 156.387 1409.05 157.752C1403.25 159.117 1398.55 160.568 1394.97 162.104C1391.55 163.469 1385.67 166.2 1377.3 170.296V275H1358.36Z" fill="#181818"/>
<rect y="7" width="756" height="324" rx="10" fill="#181818"/>
<path d="M24.7275 344.12V139.064H54.1675L60.3115 152.632C65.2609 148.707 71.4902 145.208 78.9995 142.136C86.6795 139.064 94.1889 137.528 101.528 137.528C108.184 137.528 113.986 138.637 118.936 140.856C124.056 143.075 128.237 146.147 131.48 150.072C134.893 153.997 137.709 158.861 139.928 164.664C142.146 170.467 143.682 176.781 144.536 183.608C145.389 190.435 145.816 198.029 145.816 206.392C145.816 213.389 145.56 219.704 145.048 225.336C144.706 230.968 143.938 236.6 142.744 242.232C141.549 247.693 139.842 252.472 137.624 256.568C135.576 260.664 132.93 264.333 129.688 267.576C126.616 270.648 122.69 273.037 117.912 274.744C113.133 276.28 107.672 277.048 101.528 277.048C95.3835 277.048 88.4715 276.28 80.7915 274.744C73.1115 273.037 66.2849 270.904 60.3115 268.344V344.12H24.7275ZM60.3115 243.768C69.1862 247.181 79.8529 248.888 92.3115 248.888C96.4075 248.888 99.6502 247.949 102.04 246.072C104.429 244.024 106.306 239.928 107.672 233.784C109.208 227.64 109.976 219.021 109.976 207.928C109.976 193.251 108.525 183.011 105.624 177.208C102.722 171.235 98.2849 168.248 92.3115 168.248C79.6822 168.248 69.0155 170.979 60.3115 176.44V243.768ZM166.978 275V139.064H195.65L202.818 153.656C207.084 150.413 210.071 148.28 211.778 147.256C213.655 146.061 216.556 144.44 220.482 142.392C224.407 140.173 228.332 138.723 232.258 138.04C236.354 137.187 240.876 136.76 245.826 136.76C272.962 136.76 286.53 152.632 286.53 184.376V275H250.69V183.864C250.69 177.379 249.324 172.685 246.594 169.784C244.034 166.883 240.364 165.432 235.586 165.432C230.807 165.432 226.54 165.944 222.786 166.968C219.202 167.821 215.874 169.101 212.802 170.808C209.9 172.344 206.572 174.477 202.818 177.208V275H166.978ZM307.728 344.12V139.064H337.168L343.312 152.632C348.261 148.707 354.49 145.208 362 142.136C369.68 139.064 377.189 137.528 384.528 137.528C391.184 137.528 396.986 138.637 401.936 140.856C407.056 143.075 411.237 146.147 414.48 150.072C417.893 153.997 420.709 158.861 422.928 164.664C425.146 170.467 426.682 176.781 427.536 183.608C428.389 190.435 428.816 198.029 428.816 206.392C428.816 213.389 428.56 219.704 428.048 225.336C427.706 230.968 426.938 236.6 425.744 242.232C424.549 247.693 422.842 252.472 420.624 256.568C418.576 260.664 415.93 264.333 412.688 267.576C409.616 270.648 405.69 273.037 400.912 274.744C396.133 276.28 390.672 277.048 384.528 277.048C378.384 277.048 371.472 276.28 363.792 274.744C356.112 273.037 349.285 270.904 343.312 268.344V344.12H307.728ZM343.312 243.768C352.186 247.181 362.853 248.888 375.312 248.888C379.408 248.888 382.65 247.949 385.04 246.072C387.429 244.024 389.306 239.928 390.672 233.784C392.208 227.64 392.976 219.021 392.976 207.928C392.976 193.251 391.525 183.011 388.624 177.208C385.722 171.235 381.285 168.248 375.312 168.248C362.682 168.248 352.016 170.979 343.312 176.44V243.768ZM449.978 275V139.064H478.65L485.818 153.656C486.33 153.315 487.012 152.803 487.866 152.12C491.62 149.56 494.436 147.683 496.314 146.488C498.362 145.123 501.092 143.587 504.506 141.88C508.09 140.173 511.759 138.979 515.514 138.296C519.268 137.443 523.45 137.016 528.058 137.016C545.636 137.016 557.412 142.904 563.386 154.68C579.428 142.904 595.727 137.016 612.282 137.016C639.247 137.016 652.73 152.973 652.73 184.888V275H616.89V184.376C616.89 178.232 615.524 173.624 612.794 170.552C610.234 167.48 606.564 165.944 601.786 165.944C599.567 165.944 597.434 166.029 595.386 166.2C593.338 166.371 591.29 166.627 589.242 166.968C587.364 167.309 585.487 167.736 583.61 168.248C581.903 168.76 580.196 169.443 578.49 170.296C576.783 170.979 575.076 171.917 573.37 173.112C571.834 174.136 570.212 175.331 568.506 176.696C568.506 176.867 568.506 177.379 568.506 178.232C568.676 178.915 568.762 179.683 568.762 180.536C568.762 181.389 568.762 182.243 568.762 183.096C568.762 183.949 568.762 184.461 568.762 184.632V275H532.922V184.376C532.922 181.304 532.58 178.573 531.898 176.184C531.215 173.795 530.191 171.917 528.826 170.552C527.46 169.016 525.839 167.907 523.962 167.224C522.084 166.371 520.036 165.944 517.818 165.944C513.21 165.944 509.114 166.371 505.53 167.224C501.946 168.077 498.703 169.357 495.802 171.064C492.9 172.6 489.572 174.733 485.818 177.464V275H449.978ZM678.842 269.112V246.072C678.842 241.805 680.89 239.672 684.986 239.672H707.002C711.268 239.672 713.402 241.805 713.402 246.072V269.112C713.402 273.037 711.268 275 707.002 275H684.986C683.108 275 681.572 274.488 680.378 273.464C679.354 272.269 678.842 270.819 678.842 269.112Z" fill="white"/>
</svg>
