<svg width="2137" height="347" viewBox="0 0 2137 347" fill="none" xmlns="http://www.w3.org/2000/svg">
<rect x="1529" y="7" width="608" height="324" rx="10" fill="#181818"/>
<path d="M1605.38 273.112V250.072C1605.38 245.805 1607.43 243.672 1611.53 243.672H1633.54C1637.81 243.672 1639.94 245.805 1639.94 250.072V273.112C1639.94 277.037 1637.81 279 1633.54 279H1611.53C1609.65 279 1608.11 278.488 1606.92 277.464C1605.9 276.269 1605.38 274.819 1605.38 273.112ZM1661.88 173.272V143.064H1771.71V173.272L1713.34 248.536H1771.71V278.744H1665.72V248.792L1726.65 173.272H1661.88ZM1785.18 190.168V178.392C1785.18 153.987 1796.96 141.784 1820.51 141.784C1860.96 141.784 1885.19 144.088 1893.21 148.696V171.224H1831.52C1829.3 171.224 1827.42 171.395 1825.88 171.736C1824.52 172.077 1823.49 172.675 1822.81 173.528C1822.13 174.381 1821.62 175.32 1821.28 176.344C1821.11 177.368 1821.02 178.819 1821.02 180.696V186.84C1821.02 190.765 1821.87 193.24 1823.58 194.264C1825.29 195.117 1827.93 195.544 1831.52 195.544H1863.77C1870.09 195.544 1875.55 196.483 1880.16 198.36C1884.93 200.067 1888.69 202.541 1891.42 205.784C1894.32 209.027 1896.45 212.781 1897.82 217.048C1899.19 221.144 1899.87 225.667 1899.87 230.616V244.696C1899.87 265.176 1891.25 276.867 1874.01 279.768C1871.62 280.109 1869.15 280.28 1866.59 280.28C1823.58 280.28 1798.32 277.805 1790.81 272.856V250.584H1855.07C1861.04 250.584 1864.03 247.683 1864.03 241.88V235.48C1864.03 233.432 1863.77 231.811 1863.26 230.616C1862.92 229.421 1862.07 228.483 1860.7 227.8C1859.33 227.117 1857.46 226.776 1855.07 226.776H1823.32C1810.87 226.776 1801.39 223.875 1794.91 218.072C1788.42 212.269 1785.18 202.968 1785.18 190.168ZM1919.02 279V78.552H1954.6V157.656C1957.16 155.779 1958.79 154.584 1959.47 154.072C1960.32 153.56 1961.94 152.451 1964.33 150.744C1966.89 149.037 1968.77 147.928 1969.96 147.416C1971.16 146.904 1973.04 146.136 1975.6 145.112C1978.16 143.917 1980.37 143.149 1982.25 142.808C1984.3 142.296 1986.69 141.869 1989.42 141.528C1992.15 141.016 1994.97 140.76 1997.87 140.76C2025 140.76 2038.57 156.632 2038.57 188.376V279H2002.73V187.864C2002.73 181.379 2001.37 176.685 1998.64 173.784C1996.08 170.883 1992.41 169.432 1987.63 169.432C1982.85 169.432 1978.58 169.944 1974.83 170.968C1971.24 171.821 1967.92 173.101 1964.84 174.808C1961.94 176.344 1958.61 178.477 1954.86 181.208V279H1919.02Z" fill="white"/>
<path d="M802.36 346.12V141.064H815.928L820.792 156.168C825.059 153.096 832.568 149.597 843.32 145.672C854.072 141.576 863.373 139.528 871.224 139.528C880.099 139.528 887.608 141.576 893.752 145.672C899.896 149.768 904.504 155.4 907.576 162.568C910.648 169.565 912.781 176.819 913.976 184.328C915.341 191.667 916.024 199.688 916.024 208.392C916.024 218.291 915.427 226.995 914.232 234.504C913.208 241.843 911.16 249.181 908.088 256.52C905.187 263.688 900.579 269.235 894.264 273.16C888.12 277.085 880.44 279.048 871.224 279.048C864.909 279.048 856.803 278.109 846.904 276.232C837.176 274.355 828.472 271.88 820.792 268.808V346.12H802.36ZM820.792 253.448C837.859 257.885 854.669 260.104 871.224 260.104C880.099 260.104 886.584 256.435 890.68 249.096C894.947 241.757 897.08 228.189 897.08 208.392C897.08 175.112 888.461 158.472 871.224 158.472C856.888 158.472 840.077 162.397 820.792 170.248V253.448ZM944.11 228.616V76.552H963.054V228.616C963.054 239.027 964.249 246.28 966.638 250.376C969.027 254.301 972.697 256.861 977.646 258.056C991.641 261.64 999.235 263.432 1000.43 263.432V277H977.902C955.374 277 944.11 260.872 944.11 228.616ZM1018.3 235.784V141.064H1037.24V235.784C1037.24 243.805 1039.38 249.949 1043.64 254.216C1047.91 258.312 1053.46 260.36 1060.28 260.36C1066.77 260.36 1072.91 259.677 1078.72 258.312C1084.52 256.947 1089.13 255.581 1092.54 254.216C1096.12 252.68 1102.1 249.864 1110.46 245.768V141.064H1129.4V277H1116.09L1110.46 261.128C1109.95 261.299 1108.07 262.408 1104.83 264.456C1101.59 266.333 1099.54 267.443 1098.68 267.784C1098 268.125 1096.21 269.149 1093.31 270.856C1090.41 272.392 1088.36 273.331 1087.16 273.672C1085.97 274.013 1084.01 274.696 1081.28 275.72C1078.55 276.744 1076.24 277.427 1074.36 277.768C1072.66 278.109 1070.52 278.451 1067.96 278.792C1065.4 279.133 1062.84 279.304 1060.28 279.304C1047.31 279.304 1037.07 275.037 1029.56 266.504C1022.05 257.971 1018.3 247.731 1018.3 235.784ZM1157.04 247.56C1157.04 242.781 1158.32 238.344 1160.88 234.248C1163.44 229.981 1167.19 227.336 1172.14 226.312C1162.24 219.997 1157.29 207.539 1157.29 188.936C1157.29 173.064 1161.13 161.032 1168.81 152.84C1176.66 144.648 1187.59 140.552 1201.58 140.552H1281.45V154.888L1260.72 159.496C1260.89 159.837 1261.49 160.947 1262.51 162.824C1263.53 164.531 1264.3 165.981 1264.81 167.176C1265.33 168.2 1265.92 169.821 1266.61 172.04C1267.29 174.088 1267.8 176.563 1268.14 179.464C1268.48 182.195 1268.65 185.352 1268.65 188.936C1268.65 193.715 1268.06 198.579 1266.86 203.528C1265.84 208.477 1263.96 213.853 1261.23 219.656C1258.5 225.288 1254.15 229.896 1248.17 233.48C1242.2 237.064 1234.95 238.856 1226.41 238.856H1186.48C1179.48 238.856 1175.98 241.416 1175.98 246.536C1175.98 252.339 1179.48 255.24 1186.48 255.24H1241.01C1251.42 255.24 1259.52 258.483 1265.33 264.968C1271.13 271.283 1274.03 279.816 1274.03 290.568V306.696C1274.03 311.304 1273.52 315.571 1272.49 319.496C1271.64 323.421 1269.93 327.517 1267.37 331.784C1264.98 336.221 1261.06 339.72 1255.6 342.28C1250.14 344.84 1243.48 346.12 1235.63 346.12H1197.23C1184.77 346.12 1174.79 342.792 1167.28 336.136C1159.94 329.48 1156.27 319.667 1156.27 306.696V284.936L1166.51 268.296C1160.2 263.859 1157.04 256.947 1157.04 247.56ZM1175.21 306.696C1175.21 320.349 1182.55 327.176 1197.23 327.176H1235.63C1248.6 327.176 1255.09 320.349 1255.09 306.696V291.848C1255.09 285.363 1253.89 280.755 1251.5 278.024C1249.28 275.464 1244.68 274.184 1237.68 274.184H1186.73C1184.34 274.184 1182.21 274.013 1180.33 273.672C1178.46 273.331 1177.18 272.989 1176.49 272.648L1175.21 272.136V306.696ZM1176.24 188.936C1176.24 192.52 1176.58 195.933 1177.26 199.176C1177.94 202.419 1179.05 205.747 1180.59 209.16C1182.13 212.403 1184.52 215.048 1187.76 217.096C1191.17 218.973 1195.18 219.912 1199.79 219.912H1224.88C1229.49 219.912 1233.5 218.973 1236.91 217.096C1240.32 215.219 1242.88 212.744 1244.59 209.672C1246.47 206.6 1247.75 203.528 1248.43 200.456C1249.28 197.213 1249.71 193.971 1249.71 190.728C1249.71 190.045 1249.71 189.448 1249.71 188.936C1249.2 179.037 1247.24 171.699 1243.82 166.92C1240.41 161.971 1234.01 159.496 1224.62 159.496H1201.58C1184.69 159.496 1176.24 169.309 1176.24 188.936ZM1299.3 119.048V105.224C1299.3 100.957 1301.35 98.824 1305.44 98.824H1318.24C1322.17 98.824 1324.13 100.957 1324.13 105.224V119.048C1324.13 122.973 1322.17 124.936 1318.24 124.936H1305.44C1301.35 124.936 1299.3 122.973 1299.3 119.048ZM1301.86 277V141.064H1320.8V277H1301.86ZM1352.36 277V141.064H1365.67L1371.3 156.936C1371.82 156.765 1373.69 155.741 1376.94 153.864C1380.18 151.816 1382.14 150.621 1382.82 150.28C1383.68 149.939 1385.55 149 1388.46 147.464C1391.36 145.757 1393.41 144.733 1394.6 144.392C1395.79 144.051 1397.76 143.368 1400.49 142.344C1403.22 141.32 1405.44 140.637 1407.14 140.296C1409.02 139.955 1411.24 139.613 1413.8 139.272C1416.36 138.931 1418.92 138.76 1421.48 138.76C1434.45 138.76 1444.69 143.027 1452.2 151.56C1459.71 160.093 1463.46 170.333 1463.46 182.28V277H1444.52V182.28C1444.52 174.259 1442.39 168.2 1438.12 164.104C1433.85 159.837 1428.31 157.704 1421.48 157.704C1414.99 157.704 1408.85 158.387 1403.05 159.752C1397.25 161.117 1392.55 162.568 1388.97 164.104C1385.55 165.469 1379.67 168.2 1371.3 172.296V277H1352.36Z" fill="white"/>
<rect y="7" width="756" height="324" rx="10" fill="#181818"/>
<path d="M24.7275 344.12V139.064H54.1675L60.3115 152.632C65.2609 148.707 71.4902 145.208 78.9995 142.136C86.6795 139.064 94.1889 137.528 101.528 137.528C108.184 137.528 113.986 138.637 118.936 140.856C124.056 143.075 128.237 146.147 131.48 150.072C134.893 153.997 137.709 158.861 139.928 164.664C142.146 170.467 143.682 176.781 144.536 183.608C145.389 190.435 145.816 198.029 145.816 206.392C145.816 213.389 145.56 219.704 145.048 225.336C144.706 230.968 143.938 236.6 142.744 242.232C141.549 247.693 139.842 252.472 137.624 256.568C135.576 260.664 132.93 264.333 129.688 267.576C126.616 270.648 122.69 273.037 117.912 274.744C113.133 276.28 107.672 277.048 101.528 277.048C95.3835 277.048 88.4715 276.28 80.7915 274.744C73.1115 273.037 66.2849 270.904 60.3115 268.344V344.12H24.7275ZM60.3115 243.768C69.1862 247.181 79.8529 248.888 92.3115 248.888C96.4075 248.888 99.6502 247.949 102.04 246.072C104.429 244.024 106.306 239.928 107.672 233.784C109.208 227.64 109.976 219.021 109.976 207.928C109.976 193.251 108.525 183.011 105.624 177.208C102.722 171.235 98.2849 168.248 92.3115 168.248C79.6822 168.248 69.0155 170.979 60.3115 176.44V243.768ZM166.978 275V139.064H195.65L202.818 153.656C207.084 150.413 210.071 148.28 211.778 147.256C213.655 146.061 216.556 144.44 220.482 142.392C224.407 140.173 228.332 138.723 232.258 138.04C236.354 137.187 240.876 136.76 245.826 136.76C272.962 136.76 286.53 152.632 286.53 184.376V275H250.69V183.864C250.69 177.379 249.324 172.685 246.594 169.784C244.034 166.883 240.364 165.432 235.586 165.432C230.807 165.432 226.54 165.944 222.786 166.968C219.202 167.821 215.874 169.101 212.802 170.808C209.9 172.344 206.572 174.477 202.818 177.208V275H166.978ZM307.728 344.12V139.064H337.168L343.312 152.632C348.261 148.707 354.49 145.208 362 142.136C369.68 139.064 377.189 137.528 384.528 137.528C391.184 137.528 396.986 138.637 401.936 140.856C407.056 143.075 411.237 146.147 414.48 150.072C417.893 153.997 420.709 158.861 422.928 164.664C425.146 170.467 426.682 176.781 427.536 183.608C428.389 190.435 428.816 198.029 428.816 206.392C428.816 213.389 428.56 219.704 428.048 225.336C427.706 230.968 426.938 236.6 425.744 242.232C424.549 247.693 422.842 252.472 420.624 256.568C418.576 260.664 415.93 264.333 412.688 267.576C409.616 270.648 405.69 273.037 400.912 274.744C396.133 276.28 390.672 277.048 384.528 277.048C378.384 277.048 371.472 276.28 363.792 274.744C356.112 273.037 349.285 270.904 343.312 268.344V344.12H307.728ZM343.312 243.768C352.186 247.181 362.853 248.888 375.312 248.888C379.408 248.888 382.65 247.949 385.04 246.072C387.429 244.024 389.306 239.928 390.672 233.784C392.208 227.64 392.976 219.021 392.976 207.928C392.976 193.251 391.525 183.011 388.624 177.208C385.722 171.235 381.285 168.248 375.312 168.248C362.682 168.248 352.016 170.979 343.312 176.44V243.768ZM449.978 275V139.064H478.65L485.818 153.656C486.33 153.315 487.012 152.803 487.866 152.12C491.62 149.56 494.436 147.683 496.314 146.488C498.362 145.123 501.092 143.587 504.506 141.88C508.09 140.173 511.759 138.979 515.514 138.296C519.268 137.443 523.45 137.016 528.058 137.016C545.636 137.016 557.412 142.904 563.386 154.68C579.428 142.904 595.727 137.016 612.282 137.016C639.247 137.016 652.73 152.973 652.73 184.888V275H616.89V184.376C616.89 178.232 615.524 173.624 612.794 170.552C610.234 167.48 606.564 165.944 601.786 165.944C599.567 165.944 597.434 166.029 595.386 166.2C593.338 166.371 591.29 166.627 589.242 166.968C587.364 167.309 585.487 167.736 583.61 168.248C581.903 168.76 580.196 169.443 578.49 170.296C576.783 170.979 575.076 171.917 573.37 173.112C571.834 174.136 570.212 175.331 568.506 176.696C568.506 176.867 568.506 177.379 568.506 178.232C568.676 178.915 568.762 179.683 568.762 180.536C568.762 181.389 568.762 182.243 568.762 183.096C568.762 183.949 568.762 184.461 568.762 184.632V275H532.922V184.376C532.922 181.304 532.58 178.573 531.898 176.184C531.215 173.795 530.191 171.917 528.826 170.552C527.46 169.016 525.839 167.907 523.962 167.224C522.084 166.371 520.036 165.944 517.818 165.944C513.21 165.944 509.114 166.371 505.53 167.224C501.946 168.077 498.703 169.357 495.802 171.064C492.9 172.6 489.572 174.733 485.818 177.464V275H449.978ZM678.842 269.112V246.072C678.842 241.805 680.89 239.672 684.986 239.672H707.002C711.268 239.672 713.402 241.805 713.402 246.072V269.112C713.402 273.037 711.268 275 707.002 275H684.986C683.108 275 681.572 274.488 680.378 273.464C679.354 272.269 678.842 270.819 678.842 269.112Z" fill="white"/>
</svg>
